<?xml version="1.0" encoding="UTF-8"?>
<svg xmlns="http://www.w3.org/2000/svg" xmlns:xlink="http://www.w3.org/1999/xlink" width="595.28pt" height="583pt" viewBox="0 0 595.28 583" version="1.1">
<g id="surface1">
<path style="fill-rule:nonzero;fill:rgb(0%,0%,0%);fill-opacity:1;stroke-width:10;stroke-linecap:butt;stroke-linejoin:miter;stroke:rgb(0%,0%,0%);stroke-opacity:1;stroke-miterlimit:10;" d="M 0 5 L 5952.8125 5 L 5952.8125 5825 L 0 5825 Z M 0 5 " transform="matrix(0.1,0,0,-0.1,0,583)"/>
<path style="fill-rule:nonzero;fill:rgb(100%,100%,100%);fill-opacity:1;stroke-width:10;stroke-linecap:butt;stroke-linejoin:miter;stroke:rgb(0%,0%,0%);stroke-opacity:1;stroke-miterlimit:10;" d="M 803.320313 1461.71875 L 5153.320313 1461.71875 L 5153.320313 5533.320313 L 803.320313 5533.320313 Z M 803.320313 1461.71875 " transform="matrix(0.1,0,0,-0.1,0,583)"/>
<path style=" stroke:none;fill-rule:nonzero;fill:rgb(11.376953%,17.259216%,28.637695%);fill-opacity:1;" d="M 97.25 45 L 292.25 45 C 292.25 45 281.375 52.875 279 62.875 C 276.625 72.875 277.125 80 278.875 84.75 C 278.875 84.75 278.875 87.125 277.5 88.875 C 276.125 90.625 276.25 85.25 269.875 85.625 C 263.5 86 254.625 84 242.75 105.375 C 242.75 105.375 238.875 115.25 238.25 123.75 C 237.625 132.25 236.875 143.875 238 146.875 C 239.125 149.875 225.875 149.125 225.875 149.125 C 225.875 149.125 222.5 150 222.375 151.375 C 222.25 152.75 222.375 160 222.5 164.125 C 222.625 168.25 221.625 170.625 221.25 174.5 C 220.875 178.375 218.375 181.875 218.75 186.25 C 219.125 190.625 226 190.875 230 191.25 C 234 191.625 233.625 192.5 231.375 193.125 C 229.125 193.75 222.5 193.875 222.75 201.875 C 223 209.875 225.5 228.875 226.125 234 C 226.75 239.125 222.25 234.5 222.75 236 C 223.25 237.5 221 235.125 219.625 240.875 C 218.25 246.625 220 245.625 220.625 246.375 C 221.25 247.125 222 247.125 222 247.125 L 220.125 249.75 L 219.5 252.75 L 220.5 254.875 L 221.5 255.75 C 221.5 255.75 219 258.5 221.625 261.5 C 224.25 264.5 223 263.125 222.75 266 C 222.5 268.875 217.25 290.25 218.625 299.625 C 220 309 215.375 311.875 213.375 316 C 211.375 320.125 199.75 338.25 200.25 342.5 C 200.75 346.75 199.125 351.25 197.875 353.625 C 196.625 356 191.125 361.625 191.375 367.5 C 191.625 373.375 192 374.25 194.75 376.75 C 194.75 376.75 192.375 384.875 191.5 388.25 C 190.625 391.625 187.25 404.875 186.625 407.25 C 186 409.625 184.875 414.125 185.25 416.5 L 184.875 417.5 L 97.25 417.5 "/>
<path style="fill:none;stroke-width:10;stroke-linecap:butt;stroke-linejoin:miter;stroke:rgb(11.376953%,17.259216%,28.637695%);stroke-opacity:1;stroke-miterlimit:10;" d="M 972.5 5380 L 2922.5 5380 C 2922.5 5380 2813.75 5301.25 2790 5201.25 C 2766.25 5101.25 2771.25 5030 2788.75 4982.5 C 2788.75 4982.5 2788.75 4958.75 2775 4941.25 C 2761.25 4923.75 2762.5 4977.5 2698.75 4973.75 C 2635 4970 2546.25 4990 2427.5 4776.25 C 2427.5 4776.25 2388.75 4677.5 2382.5 4592.5 C 2376.25 4507.5 2368.75 4391.25 2380 4361.25 C 2391.25 4331.25 2258.75 4338.75 2258.75 4338.75 C 2258.75 4338.75 2225 4330 2223.75 4316.25 C 2222.5 4302.5 2223.75 4230 2225 4188.75 C 2226.25 4147.5 2216.25 4123.75 2212.5 4085 C 2208.75 4046.25 2183.75 4011.25 2187.5 3967.5 C 2191.25 3923.75 2260 3921.25 2300 3917.5 C 2340 3913.75 2336.25 3905 2313.75 3898.75 C 2291.25 3892.5 2225 3891.25 2227.5 3811.25 C 2230 3731.25 2255 3541.25 2261.25 3490 C 2267.5 3438.75 2222.5 3485 2227.5 3470 C 2232.5 3455 2210 3478.75 2196.25 3421.25 C 2182.5 3363.75 2200 3373.75 2206.25 3366.25 C 2212.5 3358.75 2220 3358.75 2220 3358.75 L 2201.25 3332.5 L 2195 3302.5 L 2205 3281.25 L 2215 3272.5 C 2215 3272.5 2190 3245 2216.25 3215 C 2242.5 3185 2230 3198.75 2227.5 3170 C 2225 3141.25 2172.5 2927.5 2186.25 2833.75 C 2200 2740 2153.75 2711.25 2133.75 2670 C 2113.75 2628.75 1997.5 2447.5 2002.5 2405 C 2007.5 2362.5 1991.25 2317.5 1978.75 2293.75 C 1966.25 2270 1911.25 2213.75 1913.75 2155 C 1916.25 2096.25 1920 2087.5 1947.5 2062.5 C 1947.5 2062.5 1923.75 1981.25 1915 1947.5 C 1906.25 1913.75 1872.5 1781.25 1866.25 1757.5 C 1860 1733.75 1848.75 1688.75 1852.5 1665 L 1848.75 1655 L 972.5 1655 Z M 972.5 5380 " transform="matrix(0.1,0,0,-0.1,0,583)"/>
<path style=" stroke:none;fill-rule:nonzero;fill:rgb(11.376953%,17.259216%,28.637695%);fill-opacity:1;" d="M 215.125 417.5 L 319.5 417.5 C 319.5 417.5 320.375 405.125 323.25 399.5 C 326.125 393.875 325.5 387 325.25 382.5 C 325 378 325.625 370.125 322 368.125 L 321.375 362.625 C 321.375 362.625 317.75 354.375 318.75 352.25 C 318.5 349.875 317.75 329.75 317.75 329.75 C 317.75 329.75 318.875 326 321 324.5 C 321.625 322.625 322.125 311.75 319.875 309.5 C 317.875 307.25 316.375 307.375 311.875 306.875 C 307.375 306.375 309.875 311.5 294.375 287.5 C 291.75 283 289 278.75 287.75 277.125 C 286.5 275.5 284.625 275.5 281.75 275.25 C 278.875 275 278.5 274.875 276 270.25 L 273.5 265.625 C 273.5 265.625 272.859375 264.375 270.304688 272.25 C 267.75 280.125 265.125 272.25 260.125 291.875 C 257 298.5 256.75 299.25 256.25 308.125 C 255 312.625 252.375 313.75 249.625 315.5 C 246.875 317.25 246.5 322.125 245.5 323.375 C 244.5 324.625 240.5 324.625 238.375 332.125 C 236.25 339.625 235.875 335.25 238 342.25 C 238 342.25 234.875 354.25 233 357 C 231.125 359.75 228.125 367.375 227.25 370.875 C 226.375 374.375 222.5 379.375 219.625 379.875 C 216.75 380.375 213.5 390.875 213.125 393.75 C 212.75 396.625 211.625 412 213.125 414.25 C 214 416.5 215.125 417.5 215.125 417.5 "/>
<path style="fill:none;stroke-width:10;stroke-linecap:butt;stroke-linejoin:miter;stroke:rgb(11.376953%,17.259216%,28.637695%);stroke-opacity:1;stroke-miterlimit:10;" d="M 2151.25 1655 L 3195 1655 C 3195 1655 3203.75 1778.75 3232.5 1835 C 3261.25 1891.25 3255 1960 3252.5 2005 C 3250 2050 3256.25 2128.75 3220 2148.75 L 3213.75 2203.75 C 3213.75 2203.75 3177.5 2286.25 3187.5 2307.5 C 3185 2331.25 3177.5 2532.5 3177.5 2532.5 C 3177.5 2532.5 3188.75 2570 3210 2585 C 3216.25 2603.75 3221.25 2712.5 3198.75 2735 C 3178.75 2757.5 3163.75 2756.25 3118.75 2761.25 C 3073.75 2766.25 3098.75 2715 2943.75 2955 C 2917.5 3000 2890 3042.5 2877.5 3058.75 C 2865 3075 2846.25 3075 2817.5 3077.5 C 2788.75 3080 2785 3081.25 2760 3127.5 L 2735 3173.75 C 2735 3173.75 2728.59375 3186.25 2703.046875 3107.5 C 2677.5 3028.75 2651.25 3107.5 2601.25 2911.25 C 2570 2845 2567.5 2837.5 2562.5 2748.75 C 2550 2703.75 2523.75 2692.5 2496.25 2675 C 2468.75 2657.5 2465 2608.75 2455 2596.25 C 2445 2583.75 2405 2583.75 2383.75 2508.75 C 2362.5 2433.75 2358.75 2477.5 2380 2407.5 C 2380 2407.5 2348.75 2287.5 2330 2260 C 2311.25 2232.5 2281.25 2156.25 2272.5 2121.25 C 2263.75 2086.25 2225 2036.25 2196.25 2031.25 C 2167.5 2026.25 2135 1921.25 2131.25 1892.5 C 2127.5 1863.75 2116.25 1710 2131.25 1687.5 C 2140 1665 2151.25 1655 2151.25 1655 Z M 2151.25 1655 " transform="matrix(0.1,0,0,-0.1,0,583)"/>
<path style=" stroke:none;fill-rule:nonzero;fill:rgb(100%,64.646912%,0%);fill-opacity:1;" d="M 320 45 L 498.832031 45 L 498.832031 417.5 L 380.6875 417.5 C 380.6875 417.5 379.6875 416.75 378.8125 414.375 C 377.9375 412 367.5 407.875 364.375 407.0625 C 361.25 406.25 355.0625 396.0625 352.9375 393.875 C 351.5625 391.875 351.4375 390.3125 351.4375 390.3125 L 350.25 370.0625 C 350.25 370.0625 350.0625 368.5625 351 367.5 C 351.9375 366.4375 353.625 363.75 353.4375 361.5625 C 353.25 359.375 352.4375 350.5 351.9375 349.375 C 351.4375 348.25 351.625 346.375 351.5625 345.375 C 351.5 344.375 352.75 341.4375 353.0625 340.375 C 353.375 339.3125 356.25 317.1875 356 315.75 C 355.75 314.3125 355.875 303 354 301.8125 C 352.125 300.625 353.625 295.375 353 294.5 C 352.375 293.625 350.125 294.8125 349.3125 291.875 C 348.5 288.9375 339.9375 268.8125 339.9375 268.8125 L 334.25 257.0625 C 334.25 257.0625 318.875 235 317.0625 233.3125 C 315.25 231.625 314.8125 221.0625 316.4375 218.375 C 318.0625 215.6875 318.875 218.8125 319.0625 218.8125 C 319.25 218.8125 323.4375 221.5 325.25 219.625 C 327.0625 217.75 331.8125 210.375 331.875 207.5625 C 331.9375 204.75 333.25 176.875 332.375 175.5625 C 332.0625 174.25 331.3125 169.5625 326.3125 167.8125 C 321.3125 166.0625 326.4375 164.1875 326.3125 161.5625 C 326.1875 158.9375 325.4375 157.0625 327.25 158.3125 C 329.0625 159.5625 349.5625 170.9375 352.25 171.3125 C 354.9375 171.6875 355.4375 171.75 357.3125 171.75 C 359.1875 171.75 361.375 174.0625 362.1875 173.75 C 363.0625 173.75 366.1875 173.875 372.9375 168.25 C 379.6875 162.625 380.8125 163.25 382.4375 157.5 C 384.0625 151.75 383.5625 143.5625 387.125 142.6875 C 390.6875 141.8125 393.75 145 390.0625 133.25 C 388.3125 121.9375 388.75 121.4375 390.375 121.3125 C 391.8125 120.5625 391.375 120.75 394.625 117.125 C 397.875 113.5 397.9375 113.3125 398.125 112.9375 C 398.3125 112.5625 398.3125 111.3125 398.3125 111.3125 C 398.3125 111.3125 399.3125 110.6875 399.625 110.4375 C 399.9375 110.1875 401.5 109.6875 401.8125 109.6875 C 402.125 109.6875 401.3125 108.8125 402.8125 108.75 C 408.4375 108.75 436.5 108.9375 436.5 108.9375 L 436.5 105.75 C 436.5 105.75 436.5625 104.6875 437.25 104.75 C 437.9375 104.8125 438.5 104.875 438.75 105.1875 C 439 105.5 445.75 105.375 445.75 105.375 C 445.75 105.375 446.9375 104.3125 449.0625 104.3125 C 451.1875 104.3125 469.9375 104.375 469.9375 104.375 C 469.9375 104.375 470.375 106.125 471.3125 106.125 C 472.25 106.125 473.8125 106.375 473.75 105.375 C 476.875 105.375 485 105.3125 485 105.3125 C 485 105.3125 485.4375 105.3125 485.375 102.625 C 485.4375 100.3125 485.5 100.6875 477.5625 100.6875 C 474.6875 100.6875 474.125 100.625 474.125 100.625 C 474.125 100.625 474.5625 99.625 472.75 99.625 C 470.9375 99.625 470.0625 100.5625 470.0625 101.125 C 470.0625 101.6875 469.25 101.625 469.25 101.625 L 448 101.4375 C 448 101.4375 446.9375 101.3125 447.3125 98.1875 C 447.6875 95.0625 446.4375 93.8125 445.4375 94.5 C 444.4375 95.1875 443.6875 95.5 443.5625 95.6875 C 443.4375 95.875 442.4375 94.6875 442.3125 93.625 C 442.1875 92.5625 442.125 82.4375 442.125 82.25 C 442.125 82.0625 441.5625 80.5625 440.875 81 C 440.1875 81.4375 439 80.8125 438.8125 81.5625 C 438.625 82.3125 438.75 96.1875 438.75 96.1875 C 438.75 96.1875 437.625 97.0625 437 96.0625 C 436.375 95.0625 435.75 95.625 435.875 94.4375 C 436 93.25 435.125 92.375 435.125 92.375 L 354.375 92.375 C 354.375 92.375 354.125 88.5 353.5 88.75 C 352.875 89 348.625 89.125 348.625 89.125 L 348.5 82.75 C 348.5 82.75 348.125 80.875 346.75 82 C 345.5 82.125 345.625 87.625 345.5 88.25 C 345.375 88.875 344.375 88.875 344.375 88.875 L 344.375 91.125 L 339.875 91.625 C 339.875 91.625 333.75 92.75 332.875 93.375 C 332 94 328.75 94.25 328.75 94.25 L 327.25 94.5 C 327.25 94.5 326.25 91.75 326.25 91.375 C 326.25 91 326.125 88.375 326.125 88.375 C 326.125 88.375 326.375 89.375 325.875 87.625 C 325.375 85.875 325.625 84.375 325.625 84.375 C 325.625 84.375 333.5 81.5 334.875 79 C 336.25 76.5 336.25 67 335 63.125 C 333.75 59.25 333 58.125 333 57.125 C 333 56.125 332.625 52.875 332.625 52.875 C 332.625 52.875 327.75 50.375 325.375 49.625 C 323 48.875 319.5 46.25 319.5 46.25 "/>
<path style="fill:none;stroke-width:10;stroke-linecap:butt;stroke-linejoin:miter;stroke:rgb(100%,64.646912%,0%);stroke-opacity:1;stroke-miterlimit:10;" d="M 3200 5380 L 4988.320313 5380 L 4988.320313 1655 L 3806.875 1655 C 3806.875 1655 3796.875 1662.5 3788.125 1686.25 C 3779.375 1710 3675 1751.25 3643.75 1759.375 C 3612.5 1767.5 3550.625 1869.375 3529.375 1891.25 C 3515.625 1911.25 3514.375 1926.875 3514.375 1926.875 L 3502.5 2129.375 C 3502.5 2129.375 3500.625 2144.375 3510 2155 C 3519.375 2165.625 3536.25 2192.5 3534.375 2214.375 C 3532.5 2236.25 3524.375 2325 3519.375 2336.25 C 3514.375 2347.5 3516.25 2366.25 3515.625 2376.25 C 3515 2386.25 3527.5 2415.625 3530.625 2426.25 C 3533.75 2436.875 3562.5 2658.125 3560 2672.5 C 3557.5 2686.875 3558.75 2800 3540 2811.875 C 3521.25 2823.75 3536.25 2876.25 3530 2885 C 3523.75 2893.75 3501.25 2881.875 3493.125 2911.25 C 3485 2940.625 3399.375 3141.875 3399.375 3141.875 L 3342.5 3259.375 C 3342.5 3259.375 3188.75 3480 3170.625 3496.875 C 3152.5 3513.75 3148.125 3619.375 3164.375 3646.25 C 3180.625 3673.125 3188.75 3641.875 3190.625 3641.875 C 3192.5 3641.875 3234.375 3615 3252.5 3633.75 C 3270.625 3652.5 3318.125 3726.25 3318.75 3754.375 C 3319.375 3782.5 3332.5 4061.25 3323.75 4074.375 C 3320.625 4087.5 3313.125 4134.375 3263.125 4151.875 C 3213.125 4169.375 3264.375 4188.125 3263.125 4214.375 C 3261.875 4240.625 3254.375 4259.375 3272.5 4246.875 C 3290.625 4234.375 3495.625 4120.625 3522.5 4116.875 C 3549.375 4113.125 3554.375 4112.5 3573.125 4112.5 C 3591.875 4112.5 3613.75 4089.375 3621.875 4092.5 C 3630.625 4092.5 3661.875 4091.25 3729.375 4147.5 C 3796.875 4203.75 3808.125 4197.5 3824.375 4255 C 3840.625 4312.5 3835.625 4394.375 3871.25 4403.125 C 3906.875 4411.875 3937.5 4380 3900.625 4497.5 C 3883.125 4610.625 3887.5 4615.625 3903.75 4616.875 C 3918.125 4624.375 3913.75 4622.5 3946.25 4658.75 C 3978.75 4695 3979.375 4696.875 3981.25 4700.625 C 3983.125 4704.375 3983.125 4716.875 3983.125 4716.875 C 3983.125 4716.875 3993.125 4723.125 3996.25 4725.625 C 3999.375 4728.125 4015 4733.125 4018.125 4733.125 C 4021.25 4733.125 4013.125 4741.875 4028.125 4742.5 C 4084.375 4742.5 4365 4740.625 4365 4740.625 L 4365 4772.5 C 4365 4772.5 4365.625 4783.125 4372.5 4782.5 C 4379.375 4781.875 4385 4781.25 4387.5 4778.125 C 4390 4775 4457.5 4776.25 4457.5 4776.25 C 4457.5 4776.25 4469.375 4786.875 4490.625 4786.875 C 4511.875 4786.875 4699.375 4786.25 4699.375 4786.25 C 4699.375 4786.25 4703.75 4768.75 4713.125 4768.75 C 4722.5 4768.75 4738.125 4766.25 4737.5 4776.25 C 4768.75 4776.25 4850 4776.875 4850 4776.875 C 4850 4776.875 4854.375 4776.875 4853.75 4803.75 C 4854.375 4826.875 4855 4823.125 4775.625 4823.125 C 4746.875 4823.125 4741.25 4823.75 4741.25 4823.75 C 4741.25 4823.75 4745.625 4833.75 4727.5 4833.75 C 4709.375 4833.75 4700.625 4824.375 4700.625 4818.75 C 4700.625 4813.125 4692.5 4813.75 4692.5 4813.75 L 4480 4815.625 C 4480 4815.625 4469.375 4816.875 4473.125 4848.125 C 4476.875 4879.375 4464.375 4891.875 4454.375 4885 C 4444.375 4878.125 4436.875 4875 4435.625 4873.125 C 4434.375 4871.25 4424.375 4883.125 4423.125 4893.75 C 4421.875 4904.375 4421.25 5005.625 4421.25 5007.5 C 4421.25 5009.375 4415.625 5024.375 4408.75 5020 C 4401.875 5015.625 4390 5021.875 4388.125 5014.375 C 4386.25 5006.875 4387.5 4868.125 4387.5 4868.125 C 4387.5 4868.125 4376.25 4859.375 4370 4869.375 C 4363.75 4879.375 4357.5 4873.75 4358.75 4885.625 C 4360 4897.5 4351.25 4906.25 4351.25 4906.25 L 3543.75 4906.25 C 3543.75 4906.25 3541.25 4945 3535 4942.5 C 3528.75 4940 3486.25 4938.75 3486.25 4938.75 L 3485 5002.5 C 3485 5002.5 3481.25 5021.25 3467.5 5010 C 3455 5008.75 3456.25 4953.75 3455 4947.5 C 3453.75 4941.25 3443.75 4941.25 3443.75 4941.25 L 3443.75 4918.75 L 3398.75 4913.75 C 3398.75 4913.75 3337.5 4902.5 3328.75 4896.25 C 3320 4890 3287.5 4887.5 3287.5 4887.5 L 3272.5 4885 C 3272.5 4885 3262.5 4912.5 3262.5 4916.25 C 3262.5 4920 3261.25 4946.25 3261.25 4946.25 C 3261.25 4946.25 3263.75 4936.25 3258.75 4953.75 C 3253.75 4971.25 3256.25 4986.25 3256.25 4986.25 C 3256.25 4986.25 3335 5015 3348.75 5040 C 3362.5 5065 3362.5 5160 3350 5198.75 C 3337.5 5237.5 3330 5248.75 3330 5258.75 C 3330 5268.75 3326.25 5301.25 3326.25 5301.25 C 3326.25 5301.25 3277.5 5326.25 3253.75 5333.75 C 3230 5341.25 3195 5367.5 3195 5367.5 Z M 3200 5380 " transform="matrix(0.1,0,0,-0.1,0,583)"/>
<path style=" stroke:none;fill-rule:nonzero;fill:rgb(100%,100%,100%);fill-opacity:1;" d="M 169.5 528.25 L 102.75 528.25 L 102.75 482.75 L 169.5 482.75 C 169.5 482.75 169 469.625 156.375 465.75 C 153.75 465.125 148.625 465.125 145.375 465.125 L 97.75 465.125 C 97.75 465.125 81.25 466.5 81 483.25 C 80.75 500 81 528.25 81 528.25 C 81 528.25 79.125 547 107.375 547 L 150.875 547 C 150.875 547 163.625 546.5 168.875 534.125 C 169.875 530.75 169.5 528.25 169.5 528.25 "/>
<path style="fill:none;stroke-width:10;stroke-linecap:butt;stroke-linejoin:miter;stroke:rgb(0%,0%,0%);stroke-opacity:1;stroke-miterlimit:10;" d="M 1695 547.5 L 1027.5 547.5 L 1027.5 1002.5 L 1695 1002.5 C 1695 1002.5 1690 1133.75 1563.75 1172.5 C 1537.5 1178.75 1486.25 1178.75 1453.75 1178.75 L 977.5 1178.75 C 977.5 1178.75 812.5 1165 810 997.5 C 807.5 830 810 547.5 810 547.5 C 810 547.5 791.25 360 1073.75 360 L 1508.75 360 C 1508.75 360 1636.25 365 1688.75 488.75 C 1698.75 522.5 1695 547.5 1695 547.5 Z M 1695 547.5 " transform="matrix(0.1,0,0,-0.1,0,583)"/>
<path style="fill-rule:nonzero;fill:rgb(100%,100%,100%);fill-opacity:1;stroke-width:10;stroke-linecap:butt;stroke-linejoin:miter;stroke:rgb(0%,0%,0%);stroke-opacity:1;stroke-miterlimit:10;" d="M 2030 360 L 2578.320313 360 C 2578.320313 360 2763.320313 373.320313 2765 545 C 2771.25 761.25 2763.75 870 2483.320313 860 C 2158.75 860 2101.679688 860 2101.679688 860 L 2055 860 L 2055 1008.320313 L 2751.679688 1008.320313 C 2751.679688 1008.320313 2741.679688 1179.179688 2560 1178.75 C 2378.320313 1178.320313 2030 1178.75 2030 1178.75 C 2030 1178.75 1851.679688 1173.320313 1851.679688 1008.320313 L 1851.679688 843.320313 C 1851.679688 843.320313 1833.320313 681.640625 2098.320313 680 C 2363.320313 678.320313 2566.679688 681.640625 2566.679688 681.640625 L 2566.679688 538.320313 L 1851.40625 541.640625 C 1851.40625 541.640625 1865 435 1935 396.640625 C 1961.679688 380 2015 360 2015 360 " transform="matrix(0.1,0,0,-0.1,0,583)"/>
<path style="fill-rule:nonzero;fill:rgb(100%,100%,100%);fill-opacity:1;stroke-width:10;stroke-linecap:butt;stroke-linejoin:miter;stroke:rgb(0%,0%,0%);stroke-opacity:1;stroke-miterlimit:10;" d="M 2908.75 848.75 L 3040 848.75 L 3040 983.75 L 2908.75 983.75 Z M 2908.75 848.75 " transform="matrix(0.1,0,0,-0.1,0,583)"/>
<path style="fill-rule:nonzero;fill:rgb(100%,100%,100%);fill-opacity:1;stroke-width:10;stroke-linecap:butt;stroke-linejoin:miter;stroke:rgb(0%,0%,0%);stroke-opacity:1;stroke-miterlimit:10;" d="M 2908.75 561.25 L 3040 561.25 L 3040 703.75 L 2908.75 703.75 Z M 2908.75 561.25 " transform="matrix(0.1,0,0,-0.1,0,583)"/>
<path style=" stroke:none;fill-rule:nonzero;fill:rgb(100%,100%,100%);fill-opacity:1;" d="M 409 481.5 L 335.125 481.5 L 335.125 530.75 L 391.375 530.75 L 391.25 513.375 L 363.625 513.25 C 363.625 513.25 354.75 511.75 351.25 505.25 C 348.875 499.25 347.125 499.375 352.25 499.375 C 357.375 499.375 409 499.75 409 499.75 L 409 529.875 C 409 529.875 409.375 546.875 390.625 547 C 371.875 547.125 338.25 547 338.25 547 L 332.5 547.054688 C 332.5 547.054688 320.5 545 317.625 533.375 L 317.625 481.5 C 317.625 481.5 318.625 465.375 334.875 465.125 C 351.125 464.875 393.125 465.125 393.125 465.125 C 393.125 465.125 401.125 466.75 404.625 471 C 407.125 475.5 409.003906 477.75 409 479.125 C 409 480.5 409 481.5 409 481.5 "/>
<path style="fill:none;stroke-width:10;stroke-linecap:butt;stroke-linejoin:miter;stroke:rgb(0%,0%,0%);stroke-opacity:1;stroke-miterlimit:10;" d="M 4090 1015 L 3351.25 1015 L 3351.25 522.5 L 3913.75 522.5 L 3912.5 696.25 L 3636.25 697.5 C 3636.25 697.5 3547.5 712.5 3512.5 777.5 C 3488.75 837.5 3471.25 836.25 3522.5 836.25 C 3573.75 836.25 4090 832.5 4090 832.5 L 4090 531.25 C 4090 531.25 4093.75 361.25 3906.25 360 C 3718.75 358.75 3382.5 360 3382.5 360 L 3325 359.453125 C 3325 359.453125 3205 380 3176.25 496.25 L 3176.25 1015 C 3176.25 1015 3186.25 1176.25 3348.75 1178.75 C 3511.25 1181.25 3931.25 1178.75 3931.25 1178.75 C 3931.25 1178.75 4011.25 1162.5 4046.25 1120 C 4071.25 1075 4090.039063 1052.5 4090 1038.75 C 4090 1025 4090 1015 4090 1015 Z M 4090 1015 " transform="matrix(0.1,0,0,-0.1,0,583)"/>
<path style=" stroke:none;fill-rule:nonzero;fill:rgb(100%,100%,100%);fill-opacity:1;" d="M 445.335938 465.015625 L 493.835938 465.015625 C 493.835938 465.015625 513.5 464 513.667969 483.832031 C 513.835938 503.667969 513.667969 525 513.667969 525 C 513.667969 525 516.5 547.113281 489.167969 547.054688 C 461.835938 547 449.335938 547.054688 449.335938 547.054688 C 449.335938 547.054688 424.835938 549.5 425 526.832031 C 425.167969 504.167969 425 482.332031 425 482.332031 C 425 482.332031 426.5 473.835938 430.167969 470.667969 C 433.835938 467.5 436.835938 466 438.335938 465.832031 C 440.195313 465.1875 441.667969 465.003906 441.667969 465.003906 "/>
<path style="fill:none;stroke-width:10;stroke-linecap:butt;stroke-linejoin:miter;stroke:rgb(0%,0%,0%);stroke-opacity:1;stroke-miterlimit:10;" d="M 4453.359375 1179.84375 L 4938.359375 1179.84375 C 4938.359375 1179.84375 5135 1190 5136.679688 991.679688 C 5138.359375 793.320313 5136.679688 580 5136.679688 580 C 5136.679688 580 5165 358.867188 4891.679688 359.453125 C 4618.359375 360 4493.359375 359.453125 4493.359375 359.453125 C 4493.359375 359.453125 4248.359375 335 4250 561.679688 C 4251.679688 788.320313 4250 1006.679688 4250 1006.679688 C 4250 1006.679688 4265 1091.640625 4301.679688 1123.320313 C 4338.359375 1155 4368.359375 1170 4383.359375 1171.679688 C 4401.953125 1178.125 4416.679688 1179.960938 4416.679688 1179.960938 Z M 4453.359375 1179.84375 " transform="matrix(0.1,0,0,-0.1,0,583)"/>
<path style="fill-rule:nonzero;fill:rgb(0%,0%,0%);fill-opacity:1;stroke-width:10;stroke-linecap:butt;stroke-linejoin:miter;stroke:rgb(0%,0%,0%);stroke-opacity:1;stroke-miterlimit:10;" d="M 4430 518.320313 L 4966.679688 518.320313 L 4966.679688 1028.320313 L 4430 1028.320313 Z M 4430 518.320313 " transform="matrix(0.1,0,0,-0.1,0,583)"/>
</g>
</svg>
